<?xml version="1.0" encoding="UTF-8"?>
<svg width="145px" height="43px" viewBox="0 0 145 43" version="1.1" xmlns="http://www.w3.org/2000/svg" xmlns:xlink="http://www.w3.org/1999/xlink">
    <!-- Generator: Sketch 53.2 (72643) - https://sketchapp.com -->
    <title>plumber_logo_black</title>
    <desc>Created with Sketch.</desc>
    <defs>
        <polygon id="path-1" points="0 0 29 0 29 43 0 43"></polygon>
    </defs>
    <g id="Page-1" stroke="none" stroke-width="1" fill="none" fill-rule="evenodd">
        <g id="plumber_logo_black">
            <path d="M3.762,32.958 L3.762,42 L0,42 L0,18.702 L7.92,18.702 C10.6040134,18.702 12.6224932,19.3399936 13.9755,20.616 C15.3285068,21.8920064 16.005,23.6409889 16.005,25.863 C16.005,28.063011 15.3120069,29.7954937 13.926,31.0605 C12.5399931,32.3255063 10.5380131,32.958 7.92,32.958 L3.762,32.958 Z M7.524,29.889 C10.6260155,29.889 12.177,28.5470134 12.177,25.863 C12.177,24.5429934 11.8085037,23.5365035 11.0715,22.8435 C10.3344963,22.1504965 9.15200814,21.804 7.524,21.804 L3.762,21.804 L3.762,29.889 L7.524,29.889 Z M23.067,17.58 L23.067,42 L19.305,42 L19.305,17.58 L23.067,17.58 Z M44.385,23.817 L44.385,42 L40.59,42 L40.59,38.04 C40.1279977,39.3820067 39.3250057,40.4214963 38.181,41.1585 C37.0369943,41.8955037 35.7060076,42.264 34.188,42.264 C32.0759894,42.264 30.3820064,41.5820068 29.106,40.218 C27.8299936,38.8539932 27.192,36.9070127 27.192,34.377 L27.192,23.817 L30.954,23.817 L30.954,33.981 C30.954,35.6310083 31.3719958,36.9014955 32.208,37.7925 C33.0440042,38.6835045 34.1879927,39.129 35.64,39.129 C37.1360075,39.129 38.3349955,38.6450048 39.237,37.677 C40.1390045,36.7089952 40.59,35.3010092 40.59,33.453 L40.59,23.817 L44.385,23.817 Z M71.643,23.52 C73.7990108,23.52 75.5204936,24.2019932 76.8075,25.566 C78.0945064,26.9300068 78.738,28.8769874 78.738,31.407 L78.738,42 L74.976,42 L74.976,31.803 C74.976,30.2189921 74.580004,28.9925043 73.788,28.1235 C72.995996,27.2544957 71.9070069,26.82 70.521,26.82 C69.0469926,26.82 67.8755043,27.2874953 67.0065,28.2225 C66.1374957,29.1575047 65.703,30.526991 65.703,32.331 L65.703,42 L61.941,42 L61.941,31.803 C61.941,30.2189921 61.545004,28.9925043 60.753,28.1235 C59.960996,27.2544957 58.8720069,26.82 57.486,26.82 C56.0119926,26.82 54.8405043,27.2874953 53.9715,28.2225 C53.1024957,29.1575047 52.668,30.526991 52.668,32.331 L52.668,42 L48.906,42 L48.906,23.817 L52.668,23.817 L52.668,27.612 C53.1300023,26.2919934 53.8999946,25.2800035 54.978,24.576 C56.0560054,23.8719965 57.3209927,23.52 58.773,23.52 C60.2910076,23.52 61.6054944,23.8939963 62.7165,24.642 C63.8275056,25.3900037 64.6359975,26.467993 65.142,27.876 C65.6700026,26.5119932 66.5169942,25.4450039 67.683,24.675 C68.8490058,23.9049962 70.1689926,23.52 71.643,23.52 Z M130.911,32.034 C130.911,32.6500031 130.867,33.1889977 130.779,33.651 L116.787,33.651 C116.853,35.5210094 117.369995,36.9069955 118.338,37.809 C119.306005,38.7110045 120.504993,39.162 121.935,39.162 C123.189006,39.162 124.250496,38.8430032 125.1195,38.205 C125.988504,37.5669968 126.521999,36.7200053 126.72,35.664 L130.746,35.664 C130.503999,36.9400064 129.998004,38.0729951 129.228,39.063 C128.457996,40.053005 127.457006,40.8284972 126.225,41.3895 C124.992994,41.9505028 123.618008,42.231 122.1,42.231 C120.339991,42.231 118.783507,41.8570037 117.4305,41.109 C116.077493,40.3609963 115.016004,39.283007 114.246,37.875 C113.475996,36.466993 113.091,34.8060096 113.091,32.892 C113.091,30.9999905 113.475996,29.350007 114.246,27.942 C115.016004,26.533993 116.077493,25.4560037 117.4305,24.708 C118.783507,23.9599963 120.339991,23.586 122.1,23.586 C123.882009,23.586 125.438493,23.9544963 126.7695,24.6915 C128.100507,25.4285037 129.123496,26.4404936 129.8385,27.7275 C130.553504,29.0145064 130.911,30.4499921 130.911,32.034 Z M127.116,31.935 C127.16,30.7469941 126.956502,29.751504 126.5055,28.9485 C126.054498,28.145496 125.438504,27.5515019 124.6575,27.1665 C123.876496,26.7814981 123.024005,26.589 122.1,26.589 C120.625993,26.589 119.394005,27.0399955 118.404,27.942 C117.413995,28.8440045 116.875,30.1749912 116.787,31.935 L127.116,31.935 Z M138.303,27.381 C138.919003,26.1929941 139.798994,25.2525035 140.943,24.5595 C142.087006,23.8664965 143.406993,23.52 144.903,23.52 L144.903,27.612 L143.781,27.612 C142.130992,27.612 140.805505,28.013496 139.8045,28.8165 C138.803495,29.619504 138.303,30.9449908 138.303,32.793 L138.303,42 L134.541,42 L134.541,23.817 L138.303,23.817 L138.303,27.381 Z" id="Plumer" fill="#000000" fill-rule="nonzero"></path>
            <g id="Group-3-Copy-3" transform="translate(96.223000, 21.500000) scale(-1, 1) rotate(180.000000) translate(-96.223000, -21.500000) translate(81.723000, 0.000000)">
                <mask id="mask-2" fill="white">
                    <use xlink:href="#path-1"></use>
                </mask>
                <g id="Clip-2"></g>
                <path d="M19.0958762,21.9393146 C17.9494435,22.0680201 17.9482653,22.0680201 17.9382502,20.9455201 C17.9264677,19.7007793 17.9388393,18.4560385 17.8952442,17.2130607 C17.8775706,16.7205712 18.0183709,16.5336838 18.5226599,16.4226092 C21.0311441,15.87135 22.5952647,13.8155883 22.303649,11.5318004 C22.0043747,9.19511979 20.074998,7.61539208 17.4958191,7.62890909 C13.878606,7.64771538 10.261393,7.66534627 6.64535819,7.73469443 C5.85711209,7.74938684 5.51954482,7.5954104 5.56903112,6.72855833 C5.6361911,5.55081489 5.61851742,4.36190523 5.54016411,3.1841618 C5.48655395,2.37549166 5.78995211,2.20094585 6.54167261,2.21328748 C8.53644189,2.24561077 10.5323894,2.19565659 12.9583965,2.17508721 C14.9231205,2.28557412 17.3302756,1.89651916 19.7150441,2.31025737 C24.6648526,3.1677063 27.9792566,7.46082794 27.8013415,12.7448056 C27.649937,17.2447963 23.6951567,21.4215541 19.0958762,21.9393146 L19.0958762,21.9393146 Z M16.2498247,23.1270488 C16.1879668,23.1223473 16.1249307,23.1276365 16.0630728,23.1299873 C13.4968546,23.2304834 13.4968546,23.2304834 13.475057,20.6886968 C13.4620963,19.1642125 13.4673984,17.6391406 13.426749,16.115244 C13.4131992,15.5880804 13.5928816,15.4288147 14.1172007,15.4017807 C16.7670744,15.2666105 16.7664853,15.2525058 16.7882828,17.8524743 C16.7924066,18.3191052 16.7965305,18.7857361 16.8006544,19.252367 C16.8089021,20.3413683 16.8041891,21.4303695 16.8348235,22.5187831 C16.8466059,22.9554415 16.6957905,23.1628983 16.2498247,23.1270488 L16.2498247,23.1270488 Z M11.803127,22.0709585 C10.0605022,22.3548159 9.34177254,23.0953132 9.15560979,24.7796509 C9.1014105,25.2692019 8.9140695,25.410249 8.45573208,25.3973197 C7.74112631,25.3767504 7.0253423,25.402609 6.30955828,25.408486 C5.71807915,25.4137752 5.11717405,25.3532425 4.53865561,25.4390462 C3.64554568,25.5718655 3.53066676,25.1651797 3.54951869,24.4023499 C3.64966954,20.3108081 7.42948043,16.5942165 11.5521607,16.5524901 C12.0906188,16.5472008 12.3392286,16.6441707 12.3274461,17.2494979 C12.3009356,18.6452767 12.3256787,20.0422308 12.3586696,21.4385973 C12.3692738,21.8635017 12.2461472,21.9986719 11.803127,22.0709585 L11.803127,22.0709585 Z M10.232526,27.2503262 C10.3208944,29.8573471 10.343281,29.8567594 7.71108106,29.8785042 C6.18407516,29.8914335 4.65765838,29.8920212 3.13124161,29.9243445 C2.66229998,29.9343353 2.49263266,29.7985775 2.46317653,29.2996233 C2.30352429,26.5633092 2.28879622,26.5644846 4.99640391,26.5409768 C5.43294379,26.5374506 5.86889454,26.5339244 6.3048453,26.5303982 C7.33286432,26.5215828 8.36206158,26.5380383 9.38890236,26.4939611 C9.96447518,26.4692778 10.2101393,26.6079742 10.232526,27.2503262 L10.232526,27.2503262 Z M9.291108,37.6055354 L3.37337102,37.6055354 L3.37337102,31.003355 C5.34575364,30.9798471 7.31872538,30.9633916 9.291108,30.9522254 L9.291108,37.6055354 Z M2.14269381,42.0009163 L10.5211961,42.0009163 L10.5211961,38.6434072 L2.14269381,38.6434072 L2.14269381,42.0009163 Z M3.75512249,8.87541299 C1.18183477,8.97649676 1.18183477,8.99118917 1.16062636,6.43177168 C1.14766566,4.97310941 1.16416109,3.51327174 1.10996181,2.05637256 C1.08580778,1.40226655 1.21836038,1.12898776 1.95947667,1.12369849 C4.44086125,1.10489221 4.44027213,1.074332 4.46148054,3.56322593 C4.46619352,4.06041702 4.47031738,4.55643272 4.47444124,5.05303611 C4.48268896,6.0773908 4.46442616,7.10233319 4.51096685,8.12492479 C4.53747736,8.70850724 4.30359567,8.85366823 3.75512249,8.87541299 L3.75512249,8.87541299 Z M27.7400728,7.17285675 C25.6828565,3.08072725 22.2164589,1.04553488 17.6295499,1.01967624 C13.950479,0.999106872 10.2702298,1.07021813 6.58998066,1.10371682 C6.06507239,1.10841839 5.50952973,1.22360687 5.45356308,0.410235156 C5.43235466,0.0969930155 5.10951545,-0.00173996682 4.80434992,2.31221522e-05 C3.46291766,0.0100139596 2.12207452,0.0247063677 0.781231373,0.0311710273 C0.224510473,0.0335218126 -0.00406911396,0.335597723 5.47445634e-05,0.85394588 C0.0242087731,3.62258326 0.0483628015,6.39122064 0.0807645471,9.15985802 C0.0872448962,9.72463418 0.361776049,9.99086062 0.964448516,9.97205433 C2.17980854,9.93326638 3.39693592,9.9297402 4.61288506,9.93855564 C5.16253649,9.94208182 5.59907637,9.89859229 5.63913671,9.18865514 C5.66564723,8.72202425 6.09158291,8.85190514 6.37612914,8.84837896 C8.27840617,8.82252033 10.1806832,8.8107664 12.0829602,8.7948986 C12.0829602,8.81781876 12.0835493,8.84073891 12.0835493,8.86365907 C14.1714,8.84661587 16.2651419,8.72790122 18.3453339,8.8430897 C19.9565844,8.93300723 21.04057,10.2488593 21.1407209,11.8462179 C21.2361588,13.3601236 20.2735324,14.7923396 18.8490338,15.2043147 C18.4189743,15.3277309 17.869912,15.6456746 17.8398667,14.7370961 C17.8257278,14.3010255 17.39449,14.3004378 17.0386599,14.3039639 C15.7602638,14.3186563 14.4812785,14.3280595 13.2028824,14.3368749 C12.8853453,14.3392257 12.4464489,14.3298226 12.4240622,14.6818527 C12.3663282,15.6086498 11.7006196,15.4235254 11.1580377,15.4676027 C6.41265475,15.8543068 2.56862948,19.7877583 2.44314636,24.3958852 C2.42841829,24.9230488 2.61988315,25.5336653 1.71204515,25.5577608 C1.37388876,25.5665763 1.32204596,25.9791391 1.32616982,26.3117752 C1.3438435,27.5870762 1.35621508,28.8629649 1.35974981,30.138266 C1.36151718,30.7682764 1.66432622,31.0215735 2.28997447,31.0127581 C2.31707411,31.0127581 2.34417375,31.0127581 2.3712734,31.0121704 L2.3712734,37.6443234 L1.9759721,37.6443234 C1.51586731,37.6443234 1.14118531,38.0180983 1.14118531,38.4770891 L1.14118531,42.1672343 C1.14118531,42.6268128 1.51586731,43 1.9759721,43 L10.6885069,43 C11.1486117,43 11.5232937,42.6268128 11.5232937,42.1672343 L11.5232937,38.4770891 C11.5232937,38.0180983 11.1486117,37.6443234 10.6885069,37.6443234 L10.2932056,37.6443234 L10.2932056,30.9439976 C10.3697916,30.9434099 10.4463775,30.9422345 10.5229634,30.9416468 C11.0572977,30.9392961 11.3347745,30.7653379 11.3212246,30.1852817 C11.2905903,28.8476848 11.2935359,27.510088 11.2793969,26.1724912 C11.2764513,25.8909846 11.2782187,25.5906718 10.9506665,25.4666679 C10.6095645,25.3373747 10.0917257,25.441397 10.2313477,24.775537 C10.3161814,24.3717896 10.3992477,23.9886116 10.6955764,23.6824219 C11.3453787,23.0130357 12.0252262,23.0906117 12.4552857,23.9057465 C12.6131706,24.2054716 12.8606021,24.2707059 13.1504505,24.2695305 C14.4912936,24.2630658 15.8321367,24.2501365 17.1729799,24.239558 C17.548251,24.2366195 17.9305916,24.1237818 17.9235221,23.7129821 C17.9123288,23.0277282 18.3494578,23.1199965 18.7795173,23.0788577 C22.0579849,22.7656156 24.7797315,21.3386889 26.7061625,18.6928801 C29.3218671,15.1014678 29.7478028,11.1662533 27.7400728,7.17285675 L27.7400728,7.17285675 Z" id="Fill-1" stroke="#F7CF21" stroke-width="0.5" fill="#F7CF21" mask="url(#mask-2)"></path>
            </g>
        </g>
    </g>
</svg>